move_right_leg_forward coordinate motion generated from LLM joint_angles
version=1
nRows=24
nColumns=36
inDegrees=yes
endheader
time	pelvis_tilt	pelvis_list	pelvis_rotation	pelvis_tx	pelvis_ty	pelvis_tz	hip_flexion_r	hip_adduction_r	hip_rotation_r	knee_angle_r	knee_angle_r_beta	ankle_angle_r	subtalar_angle_r	mtp_angle_r	hip_flexion_l	hip_adduction_l	hip_rotation_l	knee_angle_l	knee_angle_l_beta	ankle_angle_l	subtalar_angle_l	mtp_angle_l	lumbar_extension	lumbar_bending	lumbar_rotation	arm_flex_r	arm_add_r	arm_rot_r	elbow_flex_r	pro_sup_r	arm_flex_l	arm_add_l	arm_rot_l	elbow_flex_l	pro_sup_l
0.246667	3.498317	-3.498317	0.000000	0.000000	0.000000	0.000000	31.484850	-6.996633	0.000000	6.996633	0.000000	-6.996633	0.000000	0.000000	0.000000	0.000000	0.000000	0.000000	0.000000	0.000000	0.000000	0.000000	0.000000	0.000000	0.000000	0.000000	0.000000	0.000000	0.000000	0.000000	0.000000	0.000000	0.000000	0.000000	0.000000
0.253333	3.572363	-3.572363	0.000000	0.000000	0.000000	0.000000	32.151271	-7.144727	0.000000	7.144727	0.000000	-7.144727	0.000000	0.000000	0.000000	0.000000	0.000000	0.000000	0.000000	0.000000	0.000000	0.000000	0.000000	0.000000	0.000000	0.000000	0.000000	0.000000	0.000000	0.000000	0.000000	0.000000	0.000000	0.000000	0.000000
0.260000	3.644843	-3.644843	0.000000	0.000000	0.000000	0.000000	32.803588	-7.289686	0.000000	7.289686	0.000000	-7.289686	0.000000	0.000000	0.000000	0.000000	0.000000	0.000000	0.000000	0.000000	0.000000	0.000000	0.000000	0.000000	0.000000	0.000000	0.000000	0.000000	0.000000	0.000000	0.000000	0.000000	0.000000	0.000000	0.000000
0.266667	3.715724	-3.715724	0.000000	0.000000	0.000000	0.000000	33.441517	-7.431448	0.000000	7.431448	0.000000	-7.431448	0.000000	0.000000	0.000000	0.000000	0.000000	0.000000	0.000000	0.000000	0.000000	0.000000	0.000000	0.000000	0.000000	0.000000	0.000000	0.000000	0.000000	0.000000	0.000000	0.000000	0.000000	0.000000	0.000000
0.273333	3.784975	-3.784975	0.000000	0.000000	0.000000	0.000000	34.064778	-7.569951	0.000000	7.569951	0.000000	-7.569951	0.000000	0.000000	0.000000	0.000000	0.000000	0.000000	0.000000	0.000000	0.000000	0.000000	0.000000	0.000000	0.000000	0.000000	0.000000	0.000000	0.000000	0.000000	0.000000	0.000000	0.000000	0.000000	0.000000
0.280000	3.852566	-3.852566	0.000000	0.000000	0.000000	0.000000	34.673096	-7.705132	0.000000	7.705132	0.000000	-7.705132	0.000000	0.000000	0.000000	0.000000	0.000000	0.000000	0.000000	0.000000	0.000000	0.000000	0.000000	0.000000	0.000000	0.000000	0.000000	0.000000	0.000000	0.000000	0.000000	0.000000	0.000000	0.000000	0.000000
0.286667	3.918467	-3.918467	0.000000	0.000000	0.000000	0.000000	35.266206	-7.836935	0.000000	7.836935	0.000000	-7.836935	0.000000	0.000000	0.000000	0.000000	0.000000	0.000000	0.000000	0.000000	0.000000	0.000000	0.000000	0.000000	0.000000	0.000000	0.000000	0.000000	0.000000	0.000000	0.000000	0.000000	0.000000	0.000000	0.000000
0.293333	3.982650	-3.982650	0.000000	0.000000	0.000000	0.000000	35.843846	-7.965299	0.000000	7.965299	0.000000	-7.965299	0.000000	0.000000	0.000000	0.000000	0.000000	0.000000	0.000000	0.000000	0.000000	0.000000	0.000000	0.000000	0.000000	0.000000	0.000000	0.000000	0.000000	0.000000	0.000000	0.000000	0.000000	0.000000	0.000000
0.300000	4.045085	-4.045085	0.000000	0.000000	0.000000	0.000000	36.405765	-8.090170	0.000000	8.090170	0.000000	-8.090170	0.000000	0.000000	0.000000	0.000000	0.000000	0.000000	0.000000	0.000000	0.000000	0.000000	0.000000	0.000000	0.000000	0.000000	0.000000	0.000000	0.000000	0.000000	0.000000	0.000000	0.000000	0.000000	0.000000
0.306667	4.105746	-4.105746	0.000000	0.000000	0.000000	0.000000	36.951714	-8.211492	0.000000	8.211492	0.000000	-8.211492	0.000000	0.000000	0.000000	0.000000	0.000000	0.000000	0.000000	0.000000	0.000000	0.000000	0.000000	0.000000	0.000000	0.000000	0.000000	0.000000	0.000000	0.000000	0.000000	0.000000	0.000000	0.000000	0.000000
0.313333	4.164606	-4.164606	0.000000	0.000000	0.000000	0.000000	37.481456	-8.329212	0.000000	8.329212	0.000000	-8.329212	0.000000	0.000000	0.000000	0.000000	0.000000	0.000000	0.000000	0.000000	0.000000	0.000000	0.000000	0.000000	0.000000	0.000000	0.000000	0.000000	0.000000	0.000000	0.000000	0.000000	0.000000	0.000000	0.000000
0.320000	4.221640	-4.221640	0.000000	0.000000	0.000000	0.000000	37.994757	-8.443279	0.000000	8.443279	0.000000	-8.443279	0.000000	0.000000	0.000000	0.000000	0.000000	0.000000	0.000000	0.000000	0.000000	0.000000	0.000000	0.000000	0.000000	0.000000	0.000000	0.000000	0.000000	0.000000	0.000000	0.000000	0.000000	0.000000	0.000000
0.326667	4.276821	-4.276821	0.000000	0.000000	0.000000	0.000000	38.491392	-8.553643	0.000000	8.553643	0.000000	-8.553643	0.000000	0.000000	0.000000	0.000000	0.000000	0.000000	0.000000	0.000000	0.000000	0.000000	0.000000	0.000000	0.000000	0.000000	0.000000	0.000000	0.000000	0.000000	0.000000	0.000000	0.000000	0.000000	0.000000
0.333333	4.330127	-4.330127	0.000000	0.000000	0.000000	0.000000	38.971143	-8.660254	0.000000	8.660254	0.000000	-8.660254	0.000000	0.000000	0.000000	0.000000	0.000000	0.000000	0.000000	0.000000	0.000000	0.000000	0.000000	0.000000	0.000000	0.000000	0.000000	0.000000	0.000000	0.000000	0.000000	0.000000	0.000000	0.000000	0.000000
0.340000	4.381533	-4.381533	0.000000	0.000000	0.000000	0.000000	39.433801	-8.763067	0.000000	8.763067	0.000000	-8.763067	0.000000	0.000000	0.000000	0.000000	0.000000	0.000000	0.000000	0.000000	0.000000	0.000000	0.000000	0.000000	0.000000	0.000000	0.000000	0.000000	0.000000	0.000000	0.000000	0.000000	0.000000	0.000000	0.000000
0.346667	4.431018	-4.431018	0.000000	0.000000	0.000000	0.000000	39.879161	-8.862036	0.000000	8.862036	0.000000	-8.862036	0.000000	0.000000	0.000000	0.000000	0.000000	0.000000	0.000000	0.000000	0.000000	0.000000	0.000000	0.000000	0.000000	0.000000	0.000000	0.000000	0.000000	0.000000	0.000000	0.000000	0.000000	0.000000	0.000000
0.353333	4.478559	-4.478559	0.000000	0.000000	0.000000	0.000000	40.307029	-8.957118	0.000000	8.957118	0.000000	-8.957118	0.000000	0.000000	0.000000	0.000000	0.000000	0.000000	0.000000	0.000000	0.000000	0.000000	0.000000	0.000000	0.000000	0.000000	0.000000	0.000000	0.000000	0.000000	0.000000	0.000000	0.000000	0.000000	0.000000
0.360000	4.524135	-4.524135	0.000000	0.000000	0.000000	0.000000	40.717217	-9.048271	0.000000	9.048271	0.000000	-9.048271	0.000000	0.000000	0.000000	0.000000	0.000000	0.000000	0.000000	0.000000	0.000000	0.000000	0.000000	0.000000	0.000000	0.000000	0.000000	0.000000	0.000000	0.000000	0.000000	0.000000	0.000000	0.000000	0.000000
0.366667	4.567727	-4.567727	0.000000	0.000000	0.000000	0.000000	41.109546	-9.135455	0.000000	9.135455	0.000000	-9.135455	0.000000	0.000000	0.000000	0.000000	0.000000	0.000000	0.000000	0.000000	0.000000	0.000000	0.000000	0.000000	0.000000	0.000000	0.000000	0.000000	0.000000	0.000000	0.000000	0.000000	0.000000	0.000000	0.000000
0.373333	4.609316	-4.609316	0.000000	0.000000	0.000000	0.000000	41.483842	-9.218632	0.000000	9.218632	0.000000	-9.218632	0.000000	0.000000	0.000000	0.000000	0.000000	0.000000	0.000000	0.000000	0.000000	0.000000	0.000000	0.000000	0.000000	0.000000	0.000000	0.000000	0.000000	0.000000	0.000000	0.000000	0.000000	0.000000	0.000000
0.380000	4.648882	-4.648882	0.000000	0.000000	0.000000	0.000000	41.839942	-9.297765	0.000000	9.297765	0.000000	-9.297765	0.000000	0.000000	0.000000	0.000000	0.000000	0.000000	0.000000	0.000000	0.000000	0.000000	0.000000	0.000000	0.000000	0.000000	0.000000	0.000000	0.000000	0.000000	0.000000	0.000000	0.000000	0.000000	0.000000
0.386667	4.686410	-4.686410	0.000000	0.000000	0.000000	0.000000	42.177690	-9.372820	0.000000	9.372820	0.000000	-9.372820	0.000000	0.000000	0.000000	0.000000	0.000000	0.000000	0.000000	0.000000	0.000000	0.000000	0.000000	0.000000	0.000000	0.000000	0.000000	0.000000	0.000000	0.000000	0.000000	0.000000	0.000000	0.000000	0.000000
0.393333	4.721882	-4.721882	0.000000	0.000000	0.000000	0.000000	42.496937	-9.443764	0.000000	9.443764	0.000000	-9.443764	0.000000	0.000000	0.000000	0.000000	0.000000	0.000000	0.000000	0.000000	0.000000	0.000000	0.000000	0.000000	0.000000	0.000000	0.000000	0.000000	0.000000	0.000000	0.000000	0.000000	0.000000	0.000000	0.000000
0.400000	4.755283	-4.755283	0.000000	0.000000	0.000000	0.000000	42.797543	-9.510565	0.000000	9.510565	0.000000	-9.510565	0.000000	0.000000	0.000000	0.000000	0.000000	0.000000	0.000000	0.000000	0.000000	0.000000	0.000000	0.000000	0.000000	0.000000	0.000000	0.000000	0.000000	0.000000	0.000000	0.000000	0.000000	0.000000	0.000000
